<mxfile host="app.diagrams.net" agent="Mozilla/5.0 (Windows NT 10.0; Win64; x64) AppleWebKit/537.36 (KHTML, like Gecko) Chrome/133.0.0.0 Safari/537.36" version="26.0.11">
  <diagram name="PÃ¡gina-1" id="h7fPX8ARWg5kO84ctjFB">
    <mxGraphModel dx="1674" dy="746" grid="1" gridSize="10" guides="1" tooltips="1" connect="1" arrows="1" fold="1" page="1" pageScale="1" pageWidth="1169" pageHeight="827" math="0" shadow="0">
      <root>
        <mxCell id="0" />
        <mxCell id="1" parent="0" />
        <mxCell id="4p0pO9zGybh9TspHl6L2-15" style="edgeStyle=orthogonalEdgeStyle;rounded=0;orthogonalLoop=1;jettySize=auto;html=1;" parent="1" source="4p0pO9zGybh9TspHl6L2-1" target="4p0pO9zGybh9TspHl6L2-2" edge="1">
          <mxGeometry relative="1" as="geometry" />
        </mxCell>
        <mxCell id="4p0pO9zGybh9TspHl6L2-1" value="Einstein Bot" style="rounded=0;whiteSpace=wrap;html=1;" parent="1" vertex="1">
          <mxGeometry x="160" y="110" width="120" height="60" as="geometry" />
        </mxCell>
        <mxCell id="hPuCXLlTEbDeWtccyvrx-3" value="" style="edgeStyle=orthogonalEdgeStyle;rounded=0;orthogonalLoop=1;jettySize=auto;html=1;" edge="1" parent="1" source="4p0pO9zGybh9TspHl6L2-2" target="hPuCXLlTEbDeWtccyvrx-2">
          <mxGeometry relative="1" as="geometry" />
        </mxCell>
        <mxCell id="4p0pO9zGybh9TspHl6L2-2" value="Apex Class&lt;div&gt;Metodo execute (Metodo Invocable)&lt;/div&gt;&lt;div&gt;BE_EnvioCartolaCuentaRut&lt;/div&gt;" style="shape=note;whiteSpace=wrap;html=1;backgroundOutline=1;darkOpacity=0.05;size=20;" parent="1" vertex="1">
          <mxGeometry x="125" y="210" width="190" height="80" as="geometry" />
        </mxCell>
        <mxCell id="hPuCXLlTEbDeWtccyvrx-12" style="edgeStyle=orthogonalEdgeStyle;rounded=0;orthogonalLoop=1;jettySize=auto;html=1;entryX=1;entryY=0.75;entryDx=0;entryDy=0;" edge="1" parent="1" source="hPuCXLlTEbDeWtccyvrx-1" target="hPuCXLlTEbDeWtccyvrx-11">
          <mxGeometry relative="1" as="geometry">
            <Array as="points">
              <mxPoint x="770" y="458" />
              <mxPoint x="660" y="458" />
            </Array>
          </mxGeometry>
        </mxCell>
        <mxCell id="hPuCXLlTEbDeWtccyvrx-1" value="Genera Cartola" style="outlineConnect=0;dashed=0;verticalLabelPosition=bottom;verticalAlign=top;align=center;html=1;shape=mxgraph.aws3.lambda_function;fillColor=#F58534;gradientColor=none;" vertex="1" parent="1">
          <mxGeometry x="750" y="324.5" width="40" height="42" as="geometry" />
        </mxCell>
        <mxCell id="hPuCXLlTEbDeWtccyvrx-9" style="edgeStyle=orthogonalEdgeStyle;rounded=0;orthogonalLoop=1;jettySize=auto;html=1;" edge="1" parent="1" source="hPuCXLlTEbDeWtccyvrx-2" target="hPuCXLlTEbDeWtccyvrx-7">
          <mxGeometry relative="1" as="geometry" />
        </mxCell>
        <mxCell id="hPuCXLlTEbDeWtccyvrx-2" value="BE_InvocaCartola" style="whiteSpace=wrap;html=1;" vertex="1" parent="1">
          <mxGeometry x="160" y="320" width="120" height="50" as="geometry" />
        </mxCell>
        <mxCell id="hPuCXLlTEbDeWtccyvrx-7" value="API&amp;nbsp;&lt;span style=&quot;color: rgb(15, 20, 26); font-family: &amp;quot;Amazon Ember&amp;quot;, &amp;quot;Helvetica Neue&amp;quot;, Roboto, Arial, sans-serif; font-size: 14px; text-align: start; text-wrap-mode: wrap; background-color: rgb(255, 255, 255);&quot;&gt;invoca-cartola&lt;/span&gt;" style="outlineConnect=0;dashed=0;verticalLabelPosition=bottom;verticalAlign=top;align=center;html=1;shape=mxgraph.aws3.api_gateway;fillColor=#D9A741;gradientColor=none;" vertex="1" parent="1">
          <mxGeometry x="500" y="323.5" width="50" height="43" as="geometry" />
        </mxCell>
        <mxCell id="hPuCXLlTEbDeWtccyvrx-10" style="edgeStyle=orthogonalEdgeStyle;rounded=0;orthogonalLoop=1;jettySize=auto;html=1;entryX=0;entryY=0.5;entryDx=0;entryDy=0;entryPerimeter=0;" edge="1" parent="1" source="hPuCXLlTEbDeWtccyvrx-7" target="hPuCXLlTEbDeWtccyvrx-1">
          <mxGeometry relative="1" as="geometry" />
        </mxCell>
        <mxCell id="hPuCXLlTEbDeWtccyvrx-15" value="" style="edgeStyle=orthogonalEdgeStyle;rounded=0;orthogonalLoop=1;jettySize=auto;html=1;" edge="1" parent="1" source="hPuCXLlTEbDeWtccyvrx-11" target="hPuCXLlTEbDeWtccyvrx-14">
          <mxGeometry relative="1" as="geometry" />
        </mxCell>
        <mxCell id="hPuCXLlTEbDeWtccyvrx-11" value="&lt;div style=&quot;color: rgb(59, 59, 59); background-color: rgb(255, 255, 255); font-family: Consolas, &amp;quot;Courier New&amp;quot;, monospace; font-size: 14px; line-height: 19px; white-space: pre;&quot;&gt;&lt;span style=&quot;color: #a31515;&quot;&gt;CC_GeneraCartolaWhatsapp&lt;/span&gt;&lt;/div&gt;" style="whiteSpace=wrap;html=1;" vertex="1" parent="1">
          <mxGeometry x="115" y="420" width="210" height="50" as="geometry" />
        </mxCell>
        <mxCell id="hPuCXLlTEbDeWtccyvrx-17" value="" style="edgeStyle=orthogonalEdgeStyle;rounded=0;orthogonalLoop=1;jettySize=auto;html=1;" edge="1" parent="1" source="hPuCXLlTEbDeWtccyvrx-14" target="hPuCXLlTEbDeWtccyvrx-16">
          <mxGeometry relative="1" as="geometry" />
        </mxCell>
        <mxCell id="hPuCXLlTEbDeWtccyvrx-14" value="BE_EnvioCartolaCuentaRut&lt;div&gt;enviaCartola&lt;/div&gt;" style="whiteSpace=wrap;html=1;" vertex="1" parent="1">
          <mxGeometry x="100" y="500" width="240" height="60" as="geometry" />
        </mxCell>
        <mxCell id="hPuCXLlTEbDeWtccyvrx-19" value="" style="edgeStyle=orthogonalEdgeStyle;rounded=0;orthogonalLoop=1;jettySize=auto;html=1;" edge="1" parent="1" source="hPuCXLlTEbDeWtccyvrx-16" target="hPuCXLlTEbDeWtccyvrx-18">
          <mxGeometry relative="1" as="geometry" />
        </mxCell>
        <mxCell id="hPuCXLlTEbDeWtccyvrx-16" value="Pa&lt;span style=&quot;background-color: transparent; color: light-dark(rgb(0, 0, 0), rgb(255, 255, 255));&quot;&gt;geReference BE_CartolaPDF&lt;/span&gt;" style="whiteSpace=wrap;html=1;" vertex="1" parent="1">
          <mxGeometry x="160" y="590" width="120" height="60" as="geometry" />
        </mxCell>
        <mxCell id="hPuCXLlTEbDeWtccyvrx-18" value="CC_GeneraPdfClave" style="whiteSpace=wrap;html=1;" vertex="1" parent="1">
          <mxGeometry x="160" y="680" width="120" height="40" as="geometry" />
        </mxCell>
      </root>
    </mxGraphModel>
  </diagram>
</mxfile>
